<?xml version="1.0" encoding="iso-8859-1"?>
<!-- Uploaded to: SVG Repo, www.svgrepo.com, Generator: SVG Repo Mixer Tools -->
<svg fill="#000000" height="800px" width="800px" version="1.1" id="Layer_1" xmlns="http://www.w3.org/2000/svg" xmlns:xlink="http://www.w3.org/1999/xlink" 
	 viewBox="0 0 472.615 472.615" xml:space="preserve">
<g>
	<g>
		<path d="M384,44.324c-48.837,0-88.615,39.679-88.615,88.615c0,40.289,27.101,74.351,64,85.062v72.447l-24.615,24.615
			l34.462,34.462l-19.692,19.692v29.538l29.538,29.538l29.538-29.538V218.001c36.899-10.711,64-44.772,64-85.062
			C472.615,84.003,432.837,44.324,384,44.324z M384,123.064c-10.876,0-19.692-8.817-19.692-19.692
			c0-10.877,8.816-19.692,19.692-19.692s19.692,8.815,19.692,19.692C403.692,114.246,394.876,123.064,384,123.064z"/>
	</g>
</g>
<g>
	<g>
		<path d="M256,221.555v-78.802c0-59.721-48.587-108.308-108.308-108.308c-59.721,0-108.308,48.587-108.308,108.308v78.802H0V438.17
			h295.385V221.555H256z M177.231,369.217h-59.077l9.526-47.316c-5.824-5.394-9.526-13.043-9.526-21.607
			c0-16.315,13.224-29.538,29.539-29.538c16.314,0,29.538,13.223,29.538,29.538c0,8.564-3.702,16.214-9.526,21.607L177.231,369.217z
			 M236.308,221.555H59.077v-78.802c0-48.865,39.755-88.615,88.615-88.615c48.861,0,88.615,39.75,88.615,88.615V221.555z"/>
	</g>
</g>
</svg>